<svg width="130" height="183" viewBox="0 0 130 183" fill="none" xmlns="http://www.w3.org/2000/svg">
<path d="M119.738 64.6874L97.8685 36.0424C95.5623 33.019 92.0146 31.2496 88.2601 31.2496H54.4634C50.7089 31.2496 47.1613 33.019 44.8551 36.0424L22.9852 64.6874C24.5004 87.6021 35.3075 106.711 53.1065 114.434V114.428C58.65 116.824 64.7655 118.165 71.3618 118.165C77.958 118.165 84.0736 116.824 89.6171 114.422V114.428C107.416 106.711 118.217 87.6021 119.738 64.6874ZM53.1065 80.9158C49.7475 80.9158 47.0214 78.1345 47.0214 74.7075C47.0214 71.2806 49.7475 68.4993 53.1065 68.4993C56.4654 68.4993 59.1916 71.2806 59.1916 74.7075C59.1916 78.1345 56.4654 80.9158 53.1065 80.9158ZM89.6171 80.9158C86.2581 80.9158 83.532 78.1345 83.532 74.7075C83.532 71.2806 86.2581 68.4993 89.6171 68.4993C92.9761 68.4993 95.7022 71.2806 95.7022 74.7075C95.7022 78.1345 92.9761 80.9158 89.6171 80.9158ZM22.6809 54.9776V25.0413C22.6809 11.3273 33.5794 0.208252 47.0214 0.208252H95.7022C109.144 0.208252 120.043 11.3273 120.043 25.0413V54.9776L102.67 32.2305C99.2133 27.6923 93.8949 25.0413 88.2601 25.0413H54.4574C48.8225 25.0413 43.5042 27.6923 40.0478 32.2305L22.6809 54.9776ZM142.637 171.401L140.58 161.748C138.931 152.516 132.45 145.109 123.821 142.477L95.0024 131.762L89.7692 136.381C84.6517 140.919 78.0797 143.427 71.2644 143.427C64.4734 143.427 57.9259 140.937 52.8205 136.405L47.6359 131.836L19.0968 142.415C10.2917 145.116 3.79276 152.522 2.14978 161.76L0.348588 171.817C-1.01448 179.441 4.72378 186.456 12.318 186.456H130.74C138.505 186.456 144.286 179.143 142.637 171.401ZM120.043 167.832C120.043 171.259 117.317 174.04 113.958 174.04H95.7022C92.3432 174.04 89.6171 171.259 89.6171 167.832V161.623C89.6171 158.196 92.3432 155.415 95.7022 155.415H113.958C117.317 155.415 120.043 158.196 120.043 161.623V167.832ZM71.3618 124.374C77.8911 124.374 83.9945 123.225 89.6171 121.152V128.304L85.7835 131.693C77.7633 138.802 64.8264 138.82 56.8123 131.718L53.1065 128.453V121.158C58.7291 123.225 64.8325 124.374 71.3618 124.374ZM95.7022 161.623H113.958V167.832H95.7022V161.623Z" fill="url(#paint0_linear_63_408)"/>
<defs>
<linearGradient id="paint0_linear_63_408" x1="-36.9999" y1="23" x2="108" y2="186" gradientUnits="userSpaceOnUse">
<stop stop-color="#414141"/>
<stop offset="1" stop-color="#262626"/>
</linearGradient>
</defs>
</svg>
