<svg width="205" height="187" viewBox="0 0 205 187" fill="none" xmlns="http://www.w3.org/2000/svg">
<path d="M138.204 51.36C122.929 41.9889 98.2526 41.9889 83.0674 51.36C67.8822 60.7311 67.9726 75.9652 83.2482 85.3363C98.5238 94.7074 123.2 94.7074 138.385 85.3363C153.57 75.9171 153.48 60.7311 138.204 51.36ZM131.199 66.1135C129.888 66.546 128.578 67.0266 127.267 67.4591C126.454 67.6994 125.957 67.7474 125.595 67.5552C125.414 67.411 125.233 67.2188 125.053 66.9305C124.194 65.4407 122.883 64.1432 121.121 63.0859C120.895 62.9417 120.624 62.7976 120.352 62.6534C119.765 62.317 119.223 62.0767 118.499 61.8845C115.969 61.2597 113.709 62.2689 114.025 63.9509C114.161 64.816 114.613 65.5849 115.155 66.4018C116.059 67.7474 117.053 69.093 117.686 70.5347C119.81 75.0521 115.2 79.5214 107.789 79.9539C105.122 80.0981 102.591 79.7617 100.241 78.9447C99.2017 78.6083 98.4334 78.6083 97.6651 79.185C96.8968 79.7136 96.0381 80.1942 95.2246 80.6748C94.5015 81.1073 93.7332 81.1553 93.0101 80.7228C92.4678 80.4345 91.9706 80.0981 91.4283 79.8097C91.0668 79.5694 90.7052 79.3772 90.3436 79.1369C89.5753 78.6564 89.6657 78.1758 90.3888 77.6952C90.9764 77.3108 91.5639 76.9744 92.1062 76.5899C93.4168 75.7729 93.4168 75.7249 92.3322 74.8118C90.9764 73.6584 89.7561 72.457 88.9878 71.1114C88.4003 70.0542 88.5359 69.8139 90.1177 69.2372C91.2927 68.8527 92.4226 68.4202 93.5976 68.0358C94.4563 67.7474 94.9534 67.6994 95.315 67.8916C95.5409 68.0358 95.6765 68.228 95.8573 68.5644C96.6256 70.1022 97.9362 71.4478 99.518 72.7454C99.7892 72.9856 100.106 73.1779 100.377 73.3701C101.235 73.8987 102.23 74.2832 103.36 74.5715C106.297 75.2924 108.918 74.0429 108.647 72.0726C108.557 71.3998 108.24 70.8231 107.834 70.1983C106.839 68.6125 105.529 67.1227 104.851 65.4407C103.766 62.7495 104.263 60.2986 107.743 58.3763C111.72 56.2138 116.149 56.0696 120.85 57.4152C122.793 57.9919 122.748 57.9919 124.239 57.0788C124.736 56.7424 125.233 56.454 125.731 56.1657C126.86 55.4929 127.267 55.4929 128.397 56.1657C128.759 56.3579 129.075 56.5982 129.436 56.7904C131.832 58.2322 131.832 58.2322 129.482 59.7219C127.809 60.7311 127.809 60.7311 129.21 61.9325C130.295 62.8456 131.154 63.8068 131.787 64.864C132.284 65.3926 132.103 65.8252 131.199 66.1135ZM158.587 97.735C154.384 100.33 147.559 100.33 143.311 97.735C139.108 95.1399 139.063 90.9109 143.266 88.3158C147.469 85.7207 154.293 85.7207 158.541 88.3158C162.79 90.9109 162.835 95.1399 158.587 97.735ZM78.1413 48.3324C73.9382 50.9275 67.1139 50.9275 62.8657 48.3324C58.6175 45.7373 58.6175 41.5083 62.8205 38.9133C67.0235 36.3182 73.8478 36.3182 78.0961 38.9133C82.2991 41.5083 82.3443 45.7373 78.1413 48.3324ZM215.757 77.5991L95.315 3.63944C88.3551 -0.637627 77.0566 -0.637627 70.1419 3.63944L5.55971 43.5267C-1.35497 47.8038 -1.30978 54.7721 5.65009 59.0491L126.092 133.009C133.052 137.286 144.35 137.286 151.265 133.009L215.802 93.1215C222.762 88.8444 222.717 81.8762 215.757 77.5991ZM152.576 118.928C151.807 118.159 150.904 117.438 149.819 116.766C142.769 112.44 131.335 112.44 124.33 116.766C123.787 117.102 123.335 117.438 122.838 117.823L29.3318 60.3947C30.2356 60.0103 31.0943 59.5777 31.9078 59.0972C38.9129 54.7721 38.8677 47.7557 31.8174 43.4306C31.0491 42.95 30.2356 42.5175 29.3769 42.1811L67.9274 18.3449C68.5149 18.8735 69.1929 19.3541 69.9612 19.8346C77.0114 24.1598 88.4455 24.1598 95.4506 19.8346C96.2641 19.3541 96.942 18.8254 97.5747 18.2488L191.397 75.821C190.132 76.3016 189.002 76.8302 187.917 77.503C180.912 81.8281 180.912 88.8925 188.008 93.2176C189.093 93.8904 190.313 94.419 191.578 94.8996L152.576 118.928ZM2.48652 73.8507C5.55971 72.1687 10.3051 72.409 13.2427 74.2351L139.153 151.511L207.215 109.413C210.153 107.587 214.989 107.587 217.971 109.413C220.954 111.239 220.954 114.219 218.017 116.045L145.661 160.738C142.136 162.948 136.351 162.948 132.781 160.738L130.25 159.2L128.487 158.095L2.26055 80.6267C-0.812647 78.7525 -0.767452 75.6288 2.48652 73.8507ZM218.107 140.217L145.751 184.91C142.226 187.121 136.442 187.121 132.871 184.91L130.386 183.372L128.578 182.267L2.35093 104.799C-0.722258 102.925 -0.63187 99.8014 2.6221 98.0233C5.6501 96.3413 10.4407 96.5816 13.3783 98.4078L139.244 175.683L207.306 133.634C210.288 131.807 215.079 131.807 218.062 133.634C221.045 135.412 221.09 138.391 218.107 140.217Z" fill="url(#paint0_linear_63_413)"/>
<defs>
<linearGradient id="paint0_linear_63_413" x1="19" y1="43" x2="183" y2="173" gradientUnits="userSpaceOnUse">
<stop stop-color="#5577CD"/>
<stop offset="1" stop-color="#5577CD"/>
</linearGradient>
</defs>
</svg>
